<?xml version="1.0" encoding="UTF-8" standalone="no"?>
<!DOCTYPE svg PUBLIC "-//W3C//DTD SVG 1.1//EN"
 "http://www.w3.org/Graphics/SVG/1.1/DTD/svg11.dtd">
<!-- Generated by graphviz version 5.0.0 (20220707.1540)
 -->
<!-- Title: dependencies Pages: 1 -->
<svg width="348pt" height="174pt"
 viewBox="0.00 0.00 348.00 173.80" xmlns="http://www.w3.org/2000/svg" xmlns:xlink="http://www.w3.org/1999/xlink">
<g id="graph0" class="graph" transform="scale(1 1) rotate(0) translate(4 169.8)">
<title>dependencies</title>
<polygon fill="white" stroke="transparent" points="-4,4 -4,-169.8 344,-169.8 344,4 -4,4"/>
<text text-anchor="middle" x="170" y="-8.2" font-family="sans-serif" font-size="14.00">dependencies</text>
<g id="clust1" class="cluster">
<title>cluster_CommentsModule</title>
<polygon fill="none" stroke="black" stroke-dasharray="1,5" points="8,-32.8 8,-157.8 332,-157.8 332,-32.8 8,-32.8"/>
</g>
<g id="clust6" class="cluster">
<title>cluster_CommentsModule_providers</title>
<polygon fill="none" stroke="black" points="144,-40.8 144,-92.8 324,-92.8 324,-40.8 144,-40.8"/>
</g>
<g id="clust3" class="cluster">
<title>cluster_CommentsModule_imports</title>
<polygon fill="none" stroke="black" points="16,-40.8 16,-92.8 136,-92.8 136,-40.8 16,-40.8"/>
</g>
<!-- ProfilesModule -->
<g id="node1" class="node">
<title>ProfilesModule</title>
<polygon fill="#8dd3c7" stroke="black" points="127.6,-84.8 124.6,-88.8 103.6,-88.8 100.6,-84.8 24.4,-84.8 24.4,-48.8 127.6,-48.8 127.6,-84.8"/>
<text text-anchor="middle" x="76" y="-62.6" font-family="Times,serif" font-size="14.00">ProfilesModule</text>
</g>
<!-- CommentsModule -->
<g id="node2" class="node">
<title>CommentsModule</title>
<polygon fill="#8dd3c7" stroke="black" points="215.22,-149.8 212.22,-153.8 191.22,-153.8 188.22,-149.8 94.78,-149.8 94.78,-113.8 215.22,-113.8 215.22,-149.8"/>
<text text-anchor="middle" x="155" y="-127.6" font-family="Times,serif" font-size="14.00">CommentsModule</text>
</g>
<!-- ProfilesModule&#45;&gt;CommentsModule -->
<g id="edge1" class="edge">
<title>ProfilesModule&#45;&gt;CommentsModule</title>
<path fill="none" stroke="black" d="M111.22,-84.91C111.22,-84.91 111.22,-103.79 111.22,-103.79"/>
<polygon fill="black" stroke="black" points="107.72,-103.79 111.22,-113.79 114.72,-103.79 107.72,-103.79"/>
</g>
<!-- CommentsService -->
<g id="node3" class="node">
<title>CommentsService</title>
<ellipse fill="#fdb462" stroke="black" cx="234" cy="-66.8" rx="81.68" ry="18"/>
<text text-anchor="middle" x="234" y="-62.6" font-family="Times,serif" font-size="14.00">CommentsService</text>
</g>
<!-- CommentsService&#45;&gt;CommentsModule -->
<g id="edge2" class="edge">
<title>CommentsService&#45;&gt;CommentsModule</title>
<path fill="none" stroke="black" d="M183.63,-81.23C183.63,-81.23 183.63,-103.69 183.63,-103.69"/>
<polygon fill="black" stroke="black" points="180.13,-103.69 183.63,-113.69 187.13,-103.69 180.13,-103.69"/>
</g>
</g>
</svg>
