<?xml version="1.0" encoding="UTF-8" standalone="no"?>
<!DOCTYPE svg PUBLIC "-//W3C//DTD SVG 1.1//EN"
 "http://www.w3.org/Graphics/SVG/1.1/DTD/svg11.dtd">
<!-- Generated by graphviz version 5.0.0 (20220707.1540)
 -->
<!-- Title: dependencies Pages: 1 -->
<svg width="446pt" height="247pt"
 viewBox="0.00 0.00 446.00 246.80" xmlns="http://www.w3.org/2000/svg" xmlns:xlink="http://www.w3.org/1999/xlink">
<g id="graph0" class="graph" transform="scale(1 1) rotate(0) translate(4 242.8)">
<title>dependencies</title>
<polygon fill="white" stroke="transparent" points="-4,4 -4,-242.8 442,-242.8 442,4 -4,4"/>
<text text-anchor="middle" x="219" y="-8.2" font-family="sans-serif" font-size="14.00">dependencies</text>
<g id="clust1" class="cluster">
<title>cluster_UsersModule</title>
<polygon fill="none" stroke="black" stroke-dasharray="1,5" points="8,-32.8 8,-230.8 430,-230.8 430,-32.8 8,-32.8"/>
</g>
<g id="clust4" class="cluster">
<title>cluster_UsersModule_exports</title>
<polygon fill="none" stroke="black" points="73,-170.8 73,-222.8 313,-222.8 313,-170.8 73,-170.8"/>
</g>
<g id="clust6" class="cluster">
<title>cluster_UsersModule_providers</title>
<polygon fill="none" stroke="black" points="114,-40.8 114,-92.8 422,-92.8 422,-40.8 114,-40.8"/>
</g>
<g id="clust3" class="cluster">
<title>cluster_UsersModule_imports</title>
<polygon fill="none" stroke="black" points="16,-40.8 16,-92.8 106,-92.8 106,-40.8 16,-40.8"/>
</g>
<!-- S3Module -->
<g id="node1" class="node">
<title>S3Module</title>
<polygon fill="#8dd3c7" stroke="black" points="98.34,-84.8 95.34,-88.8 74.34,-88.8 71.34,-84.8 23.66,-84.8 23.66,-48.8 98.34,-48.8 98.34,-84.8"/>
<text text-anchor="middle" x="61" y="-62.6" font-family="Times,serif" font-size="14.00">S3Module</text>
</g>
<!-- UsersModule -->
<g id="node2" class="node">
<title>UsersModule</title>
<polygon fill="#8dd3c7" stroke="black" points="229.94,-149.8 226.94,-153.8 205.94,-153.8 202.94,-149.8 138.06,-149.8 138.06,-113.8 229.94,-113.8 229.94,-149.8"/>
<text text-anchor="middle" x="184" y="-127.6" font-family="Times,serif" font-size="14.00">UsersModule</text>
</g>
<!-- S3Module&#45;&gt;UsersModule -->
<g id="edge1" class="edge">
<title>S3Module&#45;&gt;UsersModule</title>
<path fill="none" stroke="black" d="M89.74,-84.91C89.74,-104.14 89.74,-131.8 89.74,-131.8 89.74,-131.8 128.25,-131.8 128.25,-131.8"/>
<polygon fill="black" stroke="black" points="128.25,-135.3 138.25,-131.8 128.25,-128.3 128.25,-135.3"/>
</g>
<!-- UsersRepository  -->
<g id="node3" class="node">
<title>UsersRepository </title>
<polygon fill="#fb8072" stroke="black" points="305.32,-214.8 192.68,-214.8 192.68,-178.8 305.32,-178.8 305.32,-214.8"/>
<text text-anchor="middle" x="249" y="-192.6" font-family="Times,serif" font-size="14.00">UsersRepository </text>
</g>
<!-- UsersModule&#45;&gt;UsersRepository  -->
<g id="edge2" class="edge">
<title>UsersModule&#45;&gt;UsersRepository </title>
<path fill="none" stroke="black" stroke-dasharray="5,2" d="M211.15,-149.91C211.15,-149.91 211.15,-168.79 211.15,-168.79"/>
<polygon fill="black" stroke="black" points="207.65,-168.79 211.15,-178.79 214.65,-168.79 207.65,-168.79"/>
</g>
<!-- UsersService  -->
<g id="node4" class="node">
<title>UsersService </title>
<polygon fill="#fb8072" stroke="black" points="174.86,-214.8 81.14,-214.8 81.14,-178.8 174.86,-178.8 174.86,-214.8"/>
<text text-anchor="middle" x="128" y="-192.6" font-family="Times,serif" font-size="14.00">UsersService </text>
</g>
<!-- UsersModule&#45;&gt;UsersService  -->
<g id="edge3" class="edge">
<title>UsersModule&#45;&gt;UsersService </title>
<path fill="none" stroke="black" stroke-dasharray="5,2" d="M156.48,-149.91C156.48,-149.91 156.48,-168.79 156.48,-168.79"/>
<polygon fill="black" stroke="black" points="152.98,-168.79 156.48,-178.79 159.98,-168.79 152.98,-168.79"/>
</g>
<!-- UsersRepository -->
<g id="node5" class="node">
<title>UsersRepository</title>
<ellipse fill="#fdb462" stroke="black" cx="339" cy="-66.8" rx="75.32" ry="18"/>
<text text-anchor="middle" x="339" y="-62.6" font-family="Times,serif" font-size="14.00">UsersRepository</text>
</g>
<!-- UsersRepository&#45;&gt;UsersModule -->
<g id="edge4" class="edge">
<title>UsersRepository&#45;&gt;UsersModule</title>
<path fill="none" stroke="black" d="M284.5,-79.33C284.5,-98.22 284.5,-131.8 284.5,-131.8 284.5,-131.8 239.84,-131.8 239.84,-131.8"/>
<polygon fill="black" stroke="black" points="239.84,-128.3 229.84,-131.8 239.84,-135.3 239.84,-128.3"/>
</g>
<!-- UsersService -->
<g id="node6" class="node">
<title>UsersService</title>
<ellipse fill="#fdb462" stroke="black" cx="184" cy="-66.8" rx="61.97" ry="18"/>
<text text-anchor="middle" x="184" y="-62.6" font-family="Times,serif" font-size="14.00">UsersService</text>
</g>
<!-- UsersService&#45;&gt;UsersModule -->
<g id="edge5" class="edge">
<title>UsersService&#45;&gt;UsersModule</title>
<path fill="none" stroke="black" d="M184,-84.91C184,-84.91 184,-103.79 184,-103.79"/>
<polygon fill="black" stroke="black" points="180.5,-103.79 184,-113.79 187.5,-103.79 180.5,-103.79"/>
</g>
</g>
</svg>
