<?xml version="1.0" encoding="UTF-8" standalone="no"?>
<!DOCTYPE svg PUBLIC "-//W3C//DTD SVG 1.1//EN"
 "http://www.w3.org/Graphics/SVG/1.1/DTD/svg11.dtd">
<!-- Generated by graphviz version 5.0.0 (20220707.1540)
 -->
<!-- Title: dependencies Pages: 1 -->
<svg width="454pt" height="247pt"
 viewBox="0.00 0.00 454.00 246.80" xmlns="http://www.w3.org/2000/svg" xmlns:xlink="http://www.w3.org/1999/xlink">
<g id="graph0" class="graph" transform="scale(1 1) rotate(0) translate(4 242.8)">
<title>dependencies</title>
<polygon fill="white" stroke="transparent" points="-4,4 -4,-242.8 450,-242.8 450,4 -4,4"/>
<text text-anchor="middle" x="223" y="-8.2" font-family="sans-serif" font-size="14.00">dependencies</text>
<g id="clust1" class="cluster">
<title>cluster_PostsModule</title>
<polygon fill="none" stroke="black" stroke-dasharray="1,5" points="8,-32.8 8,-230.8 438,-230.8 438,-32.8 8,-32.8"/>
</g>
<g id="clust3" class="cluster">
<title>cluster_PostsModule_imports</title>
<polygon fill="none" stroke="black" points="310,-40.8 310,-92.8 430,-92.8 430,-40.8 310,-40.8"/>
</g>
<g id="clust4" class="cluster">
<title>cluster_PostsModule_exports</title>
<polygon fill="none" stroke="black" points="174,-170.8 174,-222.8 282,-222.8 282,-170.8 174,-170.8"/>
</g>
<g id="clust6" class="cluster">
<title>cluster_PostsModule_providers</title>
<polygon fill="none" stroke="black" points="16,-40.8 16,-92.8 302,-92.8 302,-40.8 16,-40.8"/>
</g>
<!-- ProfilesModule -->
<g id="node1" class="node">
<title>ProfilesModule</title>
<polygon fill="#8dd3c7" stroke="black" points="421.6,-84.8 418.6,-88.8 397.6,-88.8 394.6,-84.8 318.4,-84.8 318.4,-48.8 421.6,-48.8 421.6,-84.8"/>
<text text-anchor="middle" x="370" y="-62.6" font-family="Times,serif" font-size="14.00">ProfilesModule</text>
</g>
<!-- PostsModule -->
<g id="node2" class="node">
<title>PostsModule</title>
<polygon fill="#8dd3c7" stroke="black" points="272.62,-149.8 269.62,-153.8 248.62,-153.8 245.62,-149.8 183.38,-149.8 183.38,-113.8 272.62,-113.8 272.62,-149.8"/>
<text text-anchor="middle" x="228" y="-127.6" font-family="Times,serif" font-size="14.00">PostsModule</text>
</g>
<!-- ProfilesModule&#45;&gt;PostsModule -->
<g id="edge1" class="edge">
<title>ProfilesModule&#45;&gt;PostsModule</title>
<path fill="none" stroke="black" d="M370,-84.91C370,-104.14 370,-131.8 370,-131.8 370,-131.8 282.93,-131.8 282.93,-131.8"/>
<polygon fill="black" stroke="black" points="282.93,-128.3 272.93,-131.8 282.93,-135.3 282.93,-128.3"/>
</g>
<!-- PostsService  -->
<g id="node3" class="node">
<title>PostsService </title>
<polygon fill="#fb8072" stroke="black" points="273.55,-214.8 182.45,-214.8 182.45,-178.8 273.55,-178.8 273.55,-214.8"/>
<text text-anchor="middle" x="228" y="-192.6" font-family="Times,serif" font-size="14.00">PostsService </text>
</g>
<!-- PostsModule&#45;&gt;PostsService  -->
<g id="edge2" class="edge">
<title>PostsModule&#45;&gt;PostsService </title>
<path fill="none" stroke="black" stroke-dasharray="5,2" d="M228,-149.91C228,-149.91 228,-168.79 228,-168.79"/>
<polygon fill="black" stroke="black" points="224.5,-168.79 228,-178.79 231.5,-168.79 224.5,-168.79"/>
</g>
<!-- PostsGateway -->
<g id="node4" class="node">
<title>PostsGateway</title>
<ellipse fill="#fdb462" stroke="black" cx="228" cy="-66.8" rx="65.51" ry="18"/>
<text text-anchor="middle" x="228" y="-62.6" font-family="Times,serif" font-size="14.00">PostsGateway</text>
</g>
<!-- PostsGateway&#45;&gt;PostsModule -->
<g id="edge3" class="edge">
<title>PostsGateway&#45;&gt;PostsModule</title>
<path fill="none" stroke="black" d="M228,-84.91C228,-84.91 228,-103.79 228,-103.79"/>
<polygon fill="black" stroke="black" points="224.5,-103.79 228,-113.79 231.5,-103.79 224.5,-103.79"/>
</g>
<!-- PostsService -->
<g id="node5" class="node">
<title>PostsService</title>
<ellipse fill="#fdb462" stroke="black" cx="84" cy="-66.8" rx="60.28" ry="18"/>
<text text-anchor="middle" x="84" y="-62.6" font-family="Times,serif" font-size="14.00">PostsService</text>
</g>
<!-- PostsService&#45;&gt;PostsModule -->
<g id="edge4" class="edge">
<title>PostsService&#45;&gt;PostsModule</title>
<path fill="none" stroke="black" d="M84,-84.91C84,-104.14 84,-131.8 84,-131.8 84,-131.8 173.23,-131.8 173.23,-131.8"/>
<polygon fill="black" stroke="black" points="173.23,-135.3 183.23,-131.8 173.23,-128.3 173.23,-135.3"/>
</g>
</g>
</svg>
