<?xml version="1.0" encoding="UTF-8" standalone="no"?>
<!DOCTYPE svg PUBLIC "-//W3C//DTD SVG 1.1//EN"
 "http://www.w3.org/Graphics/SVG/1.1/DTD/svg11.dtd">
<!-- Generated by graphviz version 5.0.0 (20220707.1540)
 -->
<!-- Title: dependencies Pages: 1 -->
<svg width="446pt" height="174pt"
 viewBox="0.00 0.00 446.00 173.80" xmlns="http://www.w3.org/2000/svg" xmlns:xlink="http://www.w3.org/1999/xlink">
<g id="graph0" class="graph" transform="scale(1 1) rotate(0) translate(4 169.8)">
<title>dependencies</title>
<polygon fill="white" stroke="transparent" points="-4,4 -4,-169.8 442,-169.8 442,4 -4,4"/>
<text text-anchor="middle" x="219" y="-8.2" font-family="sans-serif" font-size="14.00">dependencies</text>
<g id="clust1" class="cluster">
<title>cluster_NotificationsModule</title>
<polygon fill="none" stroke="black" stroke-dasharray="1,5" points="8,-32.8 8,-157.8 430,-157.8 430,-32.8 8,-32.8"/>
</g>
<g id="clust6" class="cluster">
<title>cluster_NotificationsModule_providers</title>
<polygon fill="none" stroke="black" points="16,-40.8 16,-92.8 422,-92.8 422,-40.8 16,-40.8"/>
</g>
<!-- NotificationsGateway -->
<g id="node1" class="node">
<title>NotificationsGateway</title>
<ellipse fill="#fdb462" stroke="black" cx="318" cy="-66.8" rx="95.55" ry="18"/>
<text text-anchor="middle" x="318" y="-62.6" font-family="Times,serif" font-size="14.00">NotificationsGateway</text>
</g>
<!-- NotificationsModule -->
<g id="node3" class="node">
<title>NotificationsModule</title>
<polygon fill="#8dd3c7" stroke="black" points="282.15,-149.8 279.15,-153.8 258.15,-153.8 255.15,-149.8 149.85,-149.8 149.85,-113.8 282.15,-113.8 282.15,-149.8"/>
<text text-anchor="middle" x="216" y="-127.6" font-family="Times,serif" font-size="14.00">NotificationsModule</text>
</g>
<!-- NotificationsGateway&#45;&gt;NotificationsModule -->
<g id="edge1" class="edge">
<title>NotificationsGateway&#45;&gt;NotificationsModule</title>
<path fill="none" stroke="black" d="M252.27,-79.95C252.27,-79.95 252.27,-103.49 252.27,-103.49"/>
<polygon fill="black" stroke="black" points="248.77,-103.49 252.27,-113.49 255.77,-103.49 248.77,-103.49"/>
</g>
<!-- NotificationsService -->
<g id="node2" class="node">
<title>NotificationsService</title>
<ellipse fill="#fdb462" stroke="black" cx="114" cy="-66.8" rx="90.33" ry="18"/>
<text text-anchor="middle" x="114" y="-62.6" font-family="Times,serif" font-size="14.00">NotificationsService</text>
</g>
<!-- NotificationsService&#45;&gt;NotificationsModule -->
<g id="edge2" class="edge">
<title>NotificationsService&#45;&gt;NotificationsModule</title>
<path fill="none" stroke="black" d="M177.04,-79.95C177.04,-79.95 177.04,-103.49 177.04,-103.49"/>
<polygon fill="black" stroke="black" points="173.54,-103.49 177.04,-113.49 180.54,-103.49 173.54,-103.49"/>
</g>
</g>
</svg>
