<?xml version="1.0" encoding="UTF-8" standalone="no"?>
<!DOCTYPE svg PUBLIC "-//W3C//DTD SVG 1.1//EN"
 "http://www.w3.org/Graphics/SVG/1.1/DTD/svg11.dtd">
<!-- Generated by graphviz version 5.0.0 (20220707.1540)
 -->
<!-- Title: dependencies Pages: 1 -->
<svg width="156pt" height="247pt"
 viewBox="0.00 0.00 156.00 246.80" xmlns="http://www.w3.org/2000/svg" xmlns:xlink="http://www.w3.org/1999/xlink">
<g id="graph0" class="graph" transform="scale(1 1) rotate(0) translate(4 242.8)">
<title>dependencies</title>
<polygon fill="white" stroke="transparent" points="-4,4 -4,-242.8 152,-242.8 152,4 -4,4"/>
<text text-anchor="middle" x="74" y="-8.2" font-family="sans-serif" font-size="14.00">dependencies</text>
<g id="clust1" class="cluster">
<title>cluster_S3Module</title>
<polygon fill="none" stroke="black" stroke-dasharray="1,5" points="8,-32.8 8,-230.8 140,-230.8 140,-32.8 8,-32.8"/>
</g>
<g id="clust6" class="cluster">
<title>cluster_S3Module_providers</title>
<polygon fill="none" stroke="black" points="16,-40.8 16,-92.8 132,-92.8 132,-40.8 16,-40.8"/>
</g>
<g id="clust4" class="cluster">
<title>cluster_S3Module_exports</title>
<polygon fill="none" stroke="black" points="28,-170.8 28,-222.8 120,-222.8 120,-170.8 28,-170.8"/>
</g>
<!-- S3Service  -->
<g id="node1" class="node">
<title>S3Service </title>
<polygon fill="#fb8072" stroke="black" points="112.27,-214.8 35.73,-214.8 35.73,-178.8 112.27,-178.8 112.27,-214.8"/>
<text text-anchor="middle" x="74" y="-192.6" font-family="Times,serif" font-size="14.00">S3Service </text>
</g>
<!-- S3Module -->
<g id="node2" class="node">
<title>S3Module</title>
<polygon fill="#8dd3c7" stroke="black" points="111.34,-149.8 108.34,-153.8 87.34,-153.8 84.34,-149.8 36.66,-149.8 36.66,-113.8 111.34,-113.8 111.34,-149.8"/>
<text text-anchor="middle" x="74" y="-127.6" font-family="Times,serif" font-size="14.00">S3Module</text>
</g>
<!-- S3Module&#45;&gt;S3Service  -->
<g id="edge1" class="edge">
<title>S3Module&#45;&gt;S3Service </title>
<path fill="none" stroke="black" stroke-dasharray="5,2" d="M74,-149.91C74,-149.91 74,-168.79 74,-168.79"/>
<polygon fill="black" stroke="black" points="70.5,-168.79 74,-178.79 77.5,-168.79 70.5,-168.79"/>
</g>
<!-- S3Service -->
<g id="node3" class="node">
<title>S3Service</title>
<ellipse fill="#fdb462" stroke="black" cx="74" cy="-66.8" rx="50.39" ry="18"/>
<text text-anchor="middle" x="74" y="-62.6" font-family="Times,serif" font-size="14.00">S3Service</text>
</g>
<!-- S3Service&#45;&gt;S3Module -->
<g id="edge2" class="edge">
<title>S3Service&#45;&gt;S3Module</title>
<path fill="none" stroke="black" d="M74,-84.91C74,-84.91 74,-103.79 74,-103.79"/>
<polygon fill="black" stroke="black" points="70.5,-103.79 74,-113.79 77.5,-103.79 70.5,-103.79"/>
</g>
</g>
</svg>
