<?xml version="1.0" encoding="UTF-8" standalone="no"?>
<!DOCTYPE svg PUBLIC "-//W3C//DTD SVG 1.1//EN"
 "http://www.w3.org/Graphics/SVG/1.1/DTD/svg11.dtd">
<!-- Generated by graphviz version 5.0.0 (20220707.1540)
 -->
<!-- Title: dependencies Pages: 1 -->
<svg width="707pt" height="247pt"
 viewBox="0.00 0.00 707.00 246.80" xmlns="http://www.w3.org/2000/svg" xmlns:xlink="http://www.w3.org/1999/xlink">
<g id="graph0" class="graph" transform="scale(1 1) rotate(0) translate(4 242.8)">
<title>dependencies</title>
<polygon fill="white" stroke="transparent" points="-4,4 -4,-242.8 703,-242.8 703,4 -4,4"/>
<text text-anchor="middle" x="349.5" y="-8.2" font-family="sans-serif" font-size="14.00">dependencies</text>
<g id="clust1" class="cluster">
<title>cluster_RequestsModule</title>
<polygon fill="none" stroke="black" stroke-dasharray="1,5" points="8,-32.8 8,-230.8 691,-230.8 691,-32.8 8,-32.8"/>
</g>
<g id="clust3" class="cluster">
<title>cluster_RequestsModule_imports</title>
<polygon fill="none" stroke="black" points="563,-40.8 563,-92.8 683,-92.8 683,-40.8 563,-40.8"/>
</g>
<g id="clust4" class="cluster">
<title>cluster_RequestsModule_exports</title>
<polygon fill="none" stroke="black" points="174,-170.8 174,-222.8 590,-222.8 590,-170.8 174,-170.8"/>
</g>
<g id="clust6" class="cluster">
<title>cluster_RequestsModule_providers</title>
<polygon fill="none" stroke="black" points="16,-40.8 16,-92.8 555,-92.8 555,-40.8 16,-40.8"/>
</g>
<!-- ProfilesModule -->
<g id="node1" class="node">
<title>ProfilesModule</title>
<polygon fill="#8dd3c7" stroke="black" points="674.6,-84.8 671.6,-88.8 650.6,-88.8 647.6,-84.8 571.4,-84.8 571.4,-48.8 674.6,-48.8 674.6,-84.8"/>
<text text-anchor="middle" x="623" y="-62.6" font-family="Times,serif" font-size="14.00">ProfilesModule</text>
</g>
<!-- RequestsModule -->
<g id="node2" class="node">
<title>RequestsModule</title>
<polygon fill="#8dd3c7" stroke="black" points="427.1,-149.8 424.1,-153.8 403.1,-153.8 400.1,-149.8 316.9,-149.8 316.9,-113.8 427.1,-113.8 427.1,-149.8"/>
<text text-anchor="middle" x="372" y="-127.6" font-family="Times,serif" font-size="14.00">RequestsModule</text>
</g>
<!-- ProfilesModule&#45;&gt;RequestsModule -->
<g id="edge1" class="edge">
<title>ProfilesModule&#45;&gt;RequestsModule</title>
<path fill="none" stroke="black" d="M576.6,-84.82C576.6,-102.17 576.6,-125.8 576.6,-125.8 576.6,-125.8 437.1,-125.8 437.1,-125.8"/>
<polygon fill="black" stroke="black" points="437.1,-122.3 427.1,-125.8 437.1,-129.3 437.1,-122.3"/>
</g>
<!-- RequestsRepository  -->
<g id="node3" class="node">
<title>RequestsRepository </title>
<polygon fill="#fb8072" stroke="black" points="581.99,-214.8 450.01,-214.8 450.01,-178.8 581.99,-178.8 581.99,-214.8"/>
<text text-anchor="middle" x="516" y="-192.6" font-family="Times,serif" font-size="14.00">RequestsRepository </text>
</g>
<!-- RequestsModule&#45;&gt;RequestsRepository  -->
<g id="edge2" class="edge">
<title>RequestsModule&#45;&gt;RequestsRepository </title>
<path fill="none" stroke="black" stroke-dasharray="5,2" d="M427.22,-137.8C461.37,-137.8 498.74,-137.8 498.74,-137.8 498.74,-137.8 498.74,-168.78 498.74,-168.78"/>
<polygon fill="black" stroke="black" points="495.24,-168.78 498.74,-178.78 502.24,-168.78 495.24,-168.78"/>
</g>
<!-- RequestsResolver  -->
<g id="node4" class="node">
<title>RequestsResolver </title>
<polygon fill="#fb8072" stroke="black" points="431.82,-214.8 312.18,-214.8 312.18,-178.8 431.82,-178.8 431.82,-214.8"/>
<text text-anchor="middle" x="372" y="-192.6" font-family="Times,serif" font-size="14.00">RequestsResolver </text>
</g>
<!-- RequestsModule&#45;&gt;RequestsResolver  -->
<g id="edge3" class="edge">
<title>RequestsModule&#45;&gt;RequestsResolver </title>
<path fill="none" stroke="black" stroke-dasharray="5,2" d="M372,-149.91C372,-149.91 372,-168.79 372,-168.79"/>
<polygon fill="black" stroke="black" points="368.5,-168.79 372,-178.79 375.5,-168.79 368.5,-168.79"/>
</g>
<!-- RequestsService  -->
<g id="node5" class="node">
<title>RequestsService </title>
<polygon fill="#fb8072" stroke="black" points="294.03,-214.8 181.97,-214.8 181.97,-178.8 294.03,-178.8 294.03,-214.8"/>
<text text-anchor="middle" x="238" y="-192.6" font-family="Times,serif" font-size="14.00">RequestsService </text>
</g>
<!-- RequestsModule&#45;&gt;RequestsService  -->
<g id="edge4" class="edge">
<title>RequestsModule&#45;&gt;RequestsService </title>
<path fill="none" stroke="black" stroke-dasharray="5,2" d="M316.86,-137.8C281.76,-137.8 242.86,-137.8 242.86,-137.8 242.86,-137.8 242.86,-168.78 242.86,-168.78"/>
<polygon fill="black" stroke="black" points="239.36,-168.78 242.86,-178.78 246.36,-168.78 239.36,-168.78"/>
</g>
<!-- RequestsGateway -->
<g id="node6" class="node">
<title>RequestsGateway</title>
<ellipse fill="#fdb462" stroke="black" cx="467" cy="-66.8" rx="80.45" ry="18"/>
<text text-anchor="middle" x="467" y="-62.6" font-family="Times,serif" font-size="14.00">RequestsGateway</text>
</g>
<!-- RequestsGateway&#45;&gt;RequestsModule -->
<g id="edge5" class="edge">
<title>RequestsGateway&#45;&gt;RequestsModule</title>
<path fill="none" stroke="black" d="M406.91,-79.03C406.91,-79.03 406.91,-103.48 406.91,-103.48"/>
<polygon fill="black" stroke="black" points="403.41,-103.48 406.91,-113.48 410.41,-103.48 403.41,-103.48"/>
</g>
<!-- RequestsRepository -->
<g id="node7" class="node">
<title>RequestsRepository</title>
<ellipse fill="#fdb462" stroke="black" cx="280" cy="-66.8" rx="88.08" ry="18"/>
<text text-anchor="middle" x="280" y="-62.6" font-family="Times,serif" font-size="14.00">RequestsRepository</text>
</g>
<!-- RequestsRepository&#45;&gt;RequestsModule -->
<g id="edge6" class="edge">
<title>RequestsRepository&#45;&gt;RequestsModule</title>
<path fill="none" stroke="black" d="M342.62,-79.64C342.62,-79.64 342.62,-103.32 342.62,-103.32"/>
<polygon fill="black" stroke="black" points="339.12,-103.32 342.62,-113.32 346.12,-103.32 339.12,-103.32"/>
</g>
<!-- RequestsService -->
<g id="node8" class="node">
<title>RequestsService</title>
<ellipse fill="#fdb462" stroke="black" cx="99" cy="-66.8" rx="74.73" ry="18"/>
<text text-anchor="middle" x="99" y="-62.6" font-family="Times,serif" font-size="14.00">RequestsService</text>
</g>
<!-- RequestsService&#45;&gt;RequestsModule -->
<g id="edge7" class="edge">
<title>RequestsService&#45;&gt;RequestsModule</title>
<path fill="none" stroke="black" d="M99,-84.82C99,-102.17 99,-125.8 99,-125.8 99,-125.8 306.75,-125.8 306.75,-125.8"/>
<polygon fill="black" stroke="black" points="306.75,-129.3 316.75,-125.8 306.75,-122.3 306.75,-129.3"/>
</g>
</g>
</svg>
