<?xml version="1.0" encoding="UTF-8" standalone="no"?>
<!DOCTYPE svg PUBLIC "-//W3C//DTD SVG 1.1//EN"
 "http://www.w3.org/Graphics/SVG/1.1/DTD/svg11.dtd">
<!-- Generated by graphviz version 5.0.0 (20220707.1540)
 -->
<!-- Title: dependencies Pages: 1 -->
<svg width="1630pt" height="174pt"
 viewBox="0.00 0.00 1630.00 173.80" xmlns="http://www.w3.org/2000/svg" xmlns:xlink="http://www.w3.org/1999/xlink">
<g id="graph0" class="graph" transform="scale(1 1) rotate(0) translate(4 169.8)">
<title>dependencies</title>
<polygon fill="white" stroke="transparent" points="-4,4 -4,-169.8 1626,-169.8 1626,4 -4,4"/>
<text text-anchor="middle" x="811" y="-8.2" font-family="sans-serif" font-size="14.00">dependencies</text>
<g id="clust1" class="cluster">
<title>cluster_AppModule</title>
<polygon fill="none" stroke="black" stroke-dasharray="1,5" points="8,-32.8 8,-157.8 1614,-157.8 1614,-32.8 8,-32.8"/>
</g>
<g id="clust3" class="cluster">
<title>cluster_AppModule_imports</title>
<polygon fill="none" stroke="black" points="16,-40.8 16,-92.8 1606,-92.8 1606,-40.8 16,-40.8"/>
</g>
<!-- AuthModule -->
<g id="node1" class="node">
<title>AuthModule</title>
<polygon fill="#8dd3c7" stroke="black" points="1597.55,-84.8 1594.55,-88.8 1573.55,-88.8 1570.55,-84.8 1510.45,-84.8 1510.45,-48.8 1597.55,-48.8 1597.55,-84.8"/>
<text text-anchor="middle" x="1554" y="-62.6" font-family="Times,serif" font-size="14.00">AuthModule</text>
</g>
<!-- AppModule -->
<g id="node14" class="node">
<title>AppModule</title>
<polygon fill="#8dd3c7" stroke="black" points="811.66,-149.8 808.66,-153.8 787.66,-153.8 784.66,-149.8 728.34,-149.8 728.34,-113.8 811.66,-113.8 811.66,-149.8"/>
<text text-anchor="middle" x="770" y="-127.6" font-family="Times,serif" font-size="14.00">AppModule</text>
</g>
<!-- AuthModule&#45;&gt;AppModule -->
<g id="edge1" class="edge">
<title>AuthModule&#45;&gt;AppModule</title>
<path fill="none" stroke="black" d="M1554,-84.89C1554,-107.93 1554,-144.8 1554,-144.8 1554,-144.8 821.87,-144.8 821.87,-144.8"/>
<polygon fill="black" stroke="black" points="821.87,-141.3 811.87,-144.8 821.87,-148.3 821.87,-141.3"/>
</g>
<!-- CommentsModule -->
<g id="node2" class="node">
<title>CommentsModule</title>
<polygon fill="#8dd3c7" stroke="black" points="1492.22,-84.8 1489.22,-88.8 1468.22,-88.8 1465.22,-84.8 1371.78,-84.8 1371.78,-48.8 1492.22,-48.8 1492.22,-84.8"/>
<text text-anchor="middle" x="1432" y="-62.6" font-family="Times,serif" font-size="14.00">CommentsModule</text>
</g>
<!-- CommentsModule&#45;&gt;AppModule -->
<g id="edge2" class="edge">
<title>CommentsModule&#45;&gt;AppModule</title>
<path fill="none" stroke="black" d="M1432,-84.84C1432,-106.46 1432,-139.8 1432,-139.8 1432,-139.8 821.91,-139.8 821.91,-139.8"/>
<polygon fill="black" stroke="black" points="821.91,-136.3 811.91,-139.8 821.91,-143.3 821.91,-136.3"/>
</g>
<!-- ConversationsModule -->
<g id="node3" class="node">
<title>ConversationsModule</title>
<polygon fill="#8dd3c7" stroke="black" points="1353.66,-84.8 1350.66,-88.8 1329.66,-88.8 1326.66,-84.8 1214.34,-84.8 1214.34,-48.8 1353.66,-48.8 1353.66,-84.8"/>
<text text-anchor="middle" x="1284" y="-62.6" font-family="Times,serif" font-size="14.00">ConversationsModule</text>
</g>
<!-- ConversationsModule&#45;&gt;AppModule -->
<g id="edge3" class="edge">
<title>ConversationsModule&#45;&gt;AppModule</title>
<path fill="none" stroke="black" d="M1284,-85.02C1284,-105.17 1284,-134.8 1284,-134.8 1284,-134.8 822.06,-134.8 822.06,-134.8"/>
<polygon fill="black" stroke="black" points="822.06,-131.3 812.06,-134.8 822.06,-138.3 822.06,-131.3"/>
</g>
<!-- FriendsModule -->
<g id="node4" class="node">
<title>FriendsModule</title>
<polygon fill="#8dd3c7" stroke="black" points="1195.55,-84.8 1192.55,-88.8 1171.55,-88.8 1168.55,-84.8 1094.45,-84.8 1094.45,-48.8 1195.55,-48.8 1195.55,-84.8"/>
<text text-anchor="middle" x="1145" y="-62.6" font-family="Times,serif" font-size="14.00">FriendsModule</text>
</g>
<!-- FriendsModule&#45;&gt;AppModule -->
<g id="edge4" class="edge">
<title>FriendsModule&#45;&gt;AppModule</title>
<path fill="none" stroke="black" d="M1145,-85.02C1145,-103.63 1145,-129.8 1145,-129.8 1145,-129.8 821.93,-129.8 821.93,-129.8"/>
<polygon fill="black" stroke="black" points="821.93,-126.3 811.93,-129.8 821.93,-133.3 821.93,-126.3"/>
</g>
<!-- LikesModule -->
<g id="node5" class="node">
<title>LikesModule</title>
<polygon fill="#8dd3c7" stroke="black" points="1076.16,-84.8 1073.16,-88.8 1052.16,-88.8 1049.16,-84.8 985.84,-84.8 985.84,-48.8 1076.16,-48.8 1076.16,-84.8"/>
<text text-anchor="middle" x="1031" y="-62.6" font-family="Times,serif" font-size="14.00">LikesModule</text>
</g>
<!-- LikesModule&#45;&gt;AppModule -->
<g id="edge5" class="edge">
<title>LikesModule&#45;&gt;AppModule</title>
<path fill="none" stroke="black" d="M1031,-84.83C1031,-101.86 1031,-124.8 1031,-124.8 1031,-124.8 821.93,-124.8 821.93,-124.8"/>
<polygon fill="black" stroke="black" points="821.93,-121.3 811.93,-124.8 821.93,-128.3 821.93,-121.3"/>
</g>
<!-- MessagesModule -->
<g id="node6" class="node">
<title>MessagesModule</title>
<polygon fill="#8dd3c7" stroke="black" points="967.99,-84.8 964.99,-88.8 943.99,-88.8 940.99,-84.8 854.01,-84.8 854.01,-48.8 967.99,-48.8 967.99,-84.8"/>
<text text-anchor="middle" x="911" y="-62.6" font-family="Times,serif" font-size="14.00">MessagesModule</text>
</g>
<!-- MessagesModule&#45;&gt;AppModule -->
<g id="edge6" class="edge">
<title>MessagesModule&#45;&gt;AppModule</title>
<path fill="none" stroke="black" d="M911,-85.04C911,-100.37 911,-119.8 911,-119.8 911,-119.8 821.92,-119.8 821.92,-119.8"/>
<polygon fill="black" stroke="black" points="821.92,-116.3 811.92,-119.8 821.92,-123.3 821.92,-116.3"/>
</g>
<!-- NotificationsModule -->
<g id="node7" class="node">
<title>NotificationsModule</title>
<polygon fill="#8dd3c7" stroke="black" points="836.15,-84.8 833.15,-88.8 812.15,-88.8 809.15,-84.8 703.85,-84.8 703.85,-48.8 836.15,-48.8 836.15,-84.8"/>
<text text-anchor="middle" x="770" y="-62.6" font-family="Times,serif" font-size="14.00">NotificationsModule</text>
</g>
<!-- NotificationsModule&#45;&gt;AppModule -->
<g id="edge7" class="edge">
<title>NotificationsModule&#45;&gt;AppModule</title>
<path fill="none" stroke="black" d="M770,-84.91C770,-84.91 770,-103.79 770,-103.79"/>
<polygon fill="black" stroke="black" points="766.5,-103.79 770,-113.79 773.5,-103.79 766.5,-103.79"/>
</g>
<!-- PostsModule -->
<g id="node8" class="node">
<title>PostsModule</title>
<polygon fill="#8dd3c7" stroke="black" points="685.62,-84.8 682.62,-88.8 661.62,-88.8 658.62,-84.8 596.38,-84.8 596.38,-48.8 685.62,-48.8 685.62,-84.8"/>
<text text-anchor="middle" x="641" y="-62.6" font-family="Times,serif" font-size="14.00">PostsModule</text>
</g>
<!-- PostsModule&#45;&gt;AppModule -->
<g id="edge8" class="edge">
<title>PostsModule&#45;&gt;AppModule</title>
<path fill="none" stroke="black" d="M641,-85.04C641,-100.37 641,-119.8 641,-119.8 641,-119.8 718.12,-119.8 718.12,-119.8"/>
<polygon fill="black" stroke="black" points="718.12,-123.3 728.12,-119.8 718.12,-116.3 718.12,-123.3"/>
</g>
<!-- ProfilesModule -->
<g id="node9" class="node">
<title>ProfilesModule</title>
<polygon fill="#8dd3c7" stroke="black" points="578.6,-84.8 575.6,-88.8 554.6,-88.8 551.6,-84.8 475.4,-84.8 475.4,-48.8 578.6,-48.8 578.6,-84.8"/>
<text text-anchor="middle" x="527" y="-62.6" font-family="Times,serif" font-size="14.00">ProfilesModule</text>
</g>
<!-- ProfilesModule&#45;&gt;AppModule -->
<g id="edge9" class="edge">
<title>ProfilesModule&#45;&gt;AppModule</title>
<path fill="none" stroke="black" d="M527,-84.83C527,-101.86 527,-124.8 527,-124.8 527,-124.8 718.23,-124.8 718.23,-124.8"/>
<polygon fill="black" stroke="black" points="718.23,-128.3 728.23,-124.8 718.23,-121.3 718.23,-128.3"/>
</g>
<!-- PubSubModule -->
<g id="node10" class="node">
<title>PubSubModule</title>
<polygon fill="#8dd3c7" stroke="black" points="457.62,-84.8 454.62,-88.8 433.62,-88.8 430.62,-84.8 354.38,-84.8 354.38,-48.8 457.62,-48.8 457.62,-84.8"/>
<text text-anchor="middle" x="406" y="-62.6" font-family="Times,serif" font-size="14.00">PubSubModule</text>
</g>
<!-- PubSubModule&#45;&gt;AppModule -->
<g id="edge10" class="edge">
<title>PubSubModule&#45;&gt;AppModule</title>
<path fill="none" stroke="black" d="M406,-85.02C406,-103.63 406,-129.8 406,-129.8 406,-129.8 718.24,-129.8 718.24,-129.8"/>
<polygon fill="black" stroke="black" points="718.24,-133.3 728.24,-129.8 718.24,-126.3 718.24,-133.3"/>
</g>
<!-- RequestsModule -->
<g id="node11" class="node">
<title>RequestsModule</title>
<polygon fill="#8dd3c7" stroke="black" points="336.1,-84.8 333.1,-88.8 312.1,-88.8 309.1,-84.8 225.9,-84.8 225.9,-48.8 336.1,-48.8 336.1,-84.8"/>
<text text-anchor="middle" x="281" y="-62.6" font-family="Times,serif" font-size="14.00">RequestsModule</text>
</g>
<!-- RequestsModule&#45;&gt;AppModule -->
<g id="edge11" class="edge">
<title>RequestsModule&#45;&gt;AppModule</title>
<path fill="none" stroke="black" d="M281,-85.02C281,-105.17 281,-134.8 281,-134.8 281,-134.8 718.31,-134.8 718.31,-134.8"/>
<polygon fill="black" stroke="black" points="718.31,-138.3 728.31,-134.8 718.31,-131.3 718.31,-138.3"/>
</g>
<!-- S3Module -->
<g id="node12" class="node">
<title>S3Module</title>
<polygon fill="#8dd3c7" stroke="black" points="208.34,-84.8 205.34,-88.8 184.34,-88.8 181.34,-84.8 133.66,-84.8 133.66,-48.8 208.34,-48.8 208.34,-84.8"/>
<text text-anchor="middle" x="171" y="-62.6" font-family="Times,serif" font-size="14.00">S3Module</text>
</g>
<!-- S3Module&#45;&gt;AppModule -->
<g id="edge12" class="edge">
<title>S3Module&#45;&gt;AppModule</title>
<path fill="none" stroke="black" d="M171,-84.84C171,-106.46 171,-139.8 171,-139.8 171,-139.8 717.88,-139.8 717.88,-139.8"/>
<polygon fill="black" stroke="black" points="717.88,-143.3 727.88,-139.8 717.88,-136.3 717.88,-143.3"/>
</g>
<!-- UsersModule -->
<g id="node13" class="node">
<title>UsersModule</title>
<polygon fill="#8dd3c7" stroke="black" points="115.94,-84.8 112.94,-88.8 91.94,-88.8 88.94,-84.8 24.06,-84.8 24.06,-48.8 115.94,-48.8 115.94,-84.8"/>
<text text-anchor="middle" x="70" y="-62.6" font-family="Times,serif" font-size="14.00">UsersModule</text>
</g>
<!-- UsersModule&#45;&gt;AppModule -->
<g id="edge13" class="edge">
<title>UsersModule&#45;&gt;AppModule</title>
<path fill="none" stroke="black" d="M70,-84.89C70,-107.93 70,-144.8 70,-144.8 70,-144.8 718.31,-144.8 718.31,-144.8"/>
<polygon fill="black" stroke="black" points="718.31,-148.3 728.31,-144.8 718.31,-141.3 718.31,-148.3"/>
</g>
</g>
</svg>
