<?xml version="1.0" encoding="UTF-8" standalone="no"?>
<!DOCTYPE svg PUBLIC "-//W3C//DTD SVG 1.1//EN"
 "http://www.w3.org/Graphics/SVG/1.1/DTD/svg11.dtd">
<!-- Generated by graphviz version 5.0.0 (20220707.1540)
 -->
<!-- Title: dependencies Pages: 1 -->
<svg width="413pt" height="174pt"
 viewBox="0.00 0.00 413.00 173.80" xmlns="http://www.w3.org/2000/svg" xmlns:xlink="http://www.w3.org/1999/xlink">
<g id="graph0" class="graph" transform="scale(1 1) rotate(0) translate(4 169.8)">
<title>dependencies</title>
<polygon fill="white" stroke="transparent" points="-4,4 -4,-169.8 409,-169.8 409,4 -4,4"/>
<text text-anchor="middle" x="202.5" y="-8.2" font-family="sans-serif" font-size="14.00">dependencies</text>
<g id="clust1" class="cluster">
<title>cluster_LikesModule</title>
<polygon fill="none" stroke="black" stroke-dasharray="1,5" points="8,-32.8 8,-157.8 397,-157.8 397,-32.8 8,-32.8"/>
</g>
<g id="clust3" class="cluster">
<title>cluster_LikesModule_imports</title>
<polygon fill="none" stroke="black" points="162,-40.8 162,-92.8 389,-92.8 389,-40.8 162,-40.8"/>
</g>
<g id="clust6" class="cluster">
<title>cluster_LikesModule_providers</title>
<polygon fill="none" stroke="black" points="16,-40.8 16,-92.8 154,-92.8 154,-40.8 16,-40.8"/>
</g>
<!-- PostsModule -->
<g id="node1" class="node">
<title>PostsModule</title>
<polygon fill="#8dd3c7" stroke="black" points="380.62,-84.8 377.62,-88.8 356.62,-88.8 353.62,-84.8 291.38,-84.8 291.38,-48.8 380.62,-48.8 380.62,-84.8"/>
<text text-anchor="middle" x="336" y="-62.6" font-family="Times,serif" font-size="14.00">PostsModule</text>
</g>
<!-- LikesModule -->
<g id="node3" class="node">
<title>LikesModule</title>
<polygon fill="#8dd3c7" stroke="black" points="267.16,-149.8 264.16,-153.8 243.16,-153.8 240.16,-149.8 176.84,-149.8 176.84,-113.8 267.16,-113.8 267.16,-149.8"/>
<text text-anchor="middle" x="222" y="-127.6" font-family="Times,serif" font-size="14.00">LikesModule</text>
</g>
<!-- PostsModule&#45;&gt;LikesModule -->
<g id="edge1" class="edge">
<title>PostsModule&#45;&gt;LikesModule</title>
<path fill="none" stroke="black" d="M336,-84.91C336,-104.14 336,-131.8 336,-131.8 336,-131.8 277.38,-131.8 277.38,-131.8"/>
<polygon fill="black" stroke="black" points="277.38,-128.3 267.38,-131.8 277.38,-135.3 277.38,-128.3"/>
</g>
<!-- ProfilesModule -->
<g id="node2" class="node">
<title>ProfilesModule</title>
<polygon fill="#8dd3c7" stroke="black" points="273.6,-84.8 270.6,-88.8 249.6,-88.8 246.6,-84.8 170.4,-84.8 170.4,-48.8 273.6,-48.8 273.6,-84.8"/>
<text text-anchor="middle" x="222" y="-62.6" font-family="Times,serif" font-size="14.00">ProfilesModule</text>
</g>
<!-- ProfilesModule&#45;&gt;LikesModule -->
<g id="edge2" class="edge">
<title>ProfilesModule&#45;&gt;LikesModule</title>
<path fill="none" stroke="black" d="M222,-84.91C222,-84.91 222,-103.79 222,-103.79"/>
<polygon fill="black" stroke="black" points="218.5,-103.79 222,-113.79 225.5,-103.79 218.5,-103.79"/>
</g>
<!-- LikesService -->
<g id="node4" class="node">
<title>LikesService</title>
<ellipse fill="#fdb462" stroke="black" cx="85" cy="-66.8" rx="61.4" ry="18"/>
<text text-anchor="middle" x="85" y="-62.6" font-family="Times,serif" font-size="14.00">LikesService</text>
</g>
<!-- LikesService&#45;&gt;LikesModule -->
<g id="edge3" class="edge">
<title>LikesService&#45;&gt;LikesModule</title>
<path fill="none" stroke="black" d="M85,-84.91C85,-104.14 85,-131.8 85,-131.8 85,-131.8 166.76,-131.8 166.76,-131.8"/>
<polygon fill="black" stroke="black" points="166.76,-135.3 176.76,-131.8 166.76,-128.3 166.76,-135.3"/>
</g>
</g>
</svg>
