<?xml version="1.0" encoding="UTF-8" standalone="no"?>
<!DOCTYPE svg PUBLIC "-//W3C//DTD SVG 1.1//EN"
 "http://www.w3.org/Graphics/SVG/1.1/DTD/svg11.dtd">
<!-- Generated by graphviz version 5.0.0 (20220707.1540)
 -->
<!-- Title: dependencies Pages: 1 -->
<svg width="694pt" height="174pt"
 viewBox="0.00 0.00 694.00 173.80" xmlns="http://www.w3.org/2000/svg" xmlns:xlink="http://www.w3.org/1999/xlink">
<g id="graph0" class="graph" transform="scale(1 1) rotate(0) translate(4 169.8)">
<title>dependencies</title>
<polygon fill="white" stroke="transparent" points="-4,4 -4,-169.8 690,-169.8 690,4 -4,4"/>
<text text-anchor="middle" x="343" y="-8.2" font-family="sans-serif" font-size="14.00">dependencies</text>
<g id="clust1" class="cluster">
<title>cluster_MessagesModule</title>
<polygon fill="none" stroke="black" stroke-dasharray="1,5" points="8,-32.8 8,-157.8 678,-157.8 678,-32.8 8,-32.8"/>
</g>
<g id="clust3" class="cluster">
<title>cluster_MessagesModule_imports</title>
<polygon fill="none" stroke="black" points="580,-40.8 580,-92.8 670,-92.8 670,-40.8 580,-40.8"/>
</g>
<g id="clust6" class="cluster">
<title>cluster_MessagesModule_providers</title>
<polygon fill="none" stroke="black" points="16,-40.8 16,-92.8 572,-92.8 572,-40.8 16,-40.8"/>
</g>
<!-- S3Module -->
<g id="node1" class="node">
<title>S3Module</title>
<polygon fill="#8dd3c7" stroke="black" points="662.34,-84.8 659.34,-88.8 638.34,-88.8 635.34,-84.8 587.66,-84.8 587.66,-48.8 662.34,-48.8 662.34,-84.8"/>
<text text-anchor="middle" x="625" y="-62.6" font-family="Times,serif" font-size="14.00">S3Module</text>
</g>
<!-- MessagesModule -->
<g id="node2" class="node">
<title>MessagesModule</title>
<polygon fill="#8dd3c7" stroke="black" points="441.99,-149.8 438.99,-153.8 417.99,-153.8 414.99,-149.8 328.01,-149.8 328.01,-113.8 441.99,-113.8 441.99,-149.8"/>
<text text-anchor="middle" x="385" y="-127.6" font-family="Times,serif" font-size="14.00">MessagesModule</text>
</g>
<!-- S3Module&#45;&gt;MessagesModule -->
<g id="edge1" class="edge">
<title>S3Module&#45;&gt;MessagesModule</title>
<path fill="none" stroke="black" d="M625,-84.91C625,-104.14 625,-131.8 625,-131.8 625,-131.8 452.18,-131.8 452.18,-131.8"/>
<polygon fill="black" stroke="black" points="452.18,-128.3 442.18,-131.8 452.18,-135.3 452.18,-128.3"/>
</g>
<!-- MessagesGateway -->
<g id="node3" class="node">
<title>MessagesGateway</title>
<ellipse fill="#fdb462" stroke="black" cx="481" cy="-66.8" rx="82.81" ry="18"/>
<text text-anchor="middle" x="481" y="-62.6" font-family="Times,serif" font-size="14.00">MessagesGateway</text>
</g>
<!-- MessagesGateway&#45;&gt;MessagesModule -->
<g id="edge2" class="edge">
<title>MessagesGateway&#45;&gt;MessagesModule</title>
<path fill="none" stroke="black" d="M420.05,-79.03C420.05,-79.03 420.05,-103.48 420.05,-103.48"/>
<polygon fill="black" stroke="black" points="416.55,-103.48 420.05,-113.48 423.55,-103.48 416.55,-103.48"/>
</g>
<!-- MessagesRepository -->
<g id="node4" class="node">
<title>MessagesRepository</title>
<ellipse fill="#fdb462" stroke="black" cx="289" cy="-66.8" rx="90.93" ry="18"/>
<text text-anchor="middle" x="289" y="-62.6" font-family="Times,serif" font-size="14.00">MessagesRepository</text>
</g>
<!-- MessagesRepository&#45;&gt;MessagesModule -->
<g id="edge3" class="edge">
<title>MessagesRepository&#45;&gt;MessagesModule</title>
<path fill="none" stroke="black" d="M353.99,-79.64C353.99,-79.64 353.99,-103.32 353.99,-103.32"/>
<polygon fill="black" stroke="black" points="350.49,-103.32 353.99,-113.32 357.49,-103.32 350.49,-103.32"/>
</g>
<!-- MessagesService -->
<g id="node5" class="node">
<title>MessagesService</title>
<ellipse fill="#fdb462" stroke="black" cx="102" cy="-66.8" rx="77.58" ry="18"/>
<text text-anchor="middle" x="102" y="-62.6" font-family="Times,serif" font-size="14.00">MessagesService</text>
</g>
<!-- MessagesService&#45;&gt;MessagesModule -->
<g id="edge4" class="edge">
<title>MessagesService&#45;&gt;MessagesModule</title>
<path fill="none" stroke="black" d="M102,-84.91C102,-104.14 102,-131.8 102,-131.8 102,-131.8 317.73,-131.8 317.73,-131.8"/>
<polygon fill="black" stroke="black" points="317.73,-135.3 327.73,-131.8 317.73,-128.3 317.73,-135.3"/>
</g>
</g>
</svg>
