<?xml version="1.0" encoding="UTF-8" standalone="no"?>
<!DOCTYPE svg PUBLIC "-//W3C//DTD SVG 1.1//EN"
 "http://www.w3.org/Graphics/SVG/1.1/DTD/svg11.dtd">
<!-- Generated by graphviz version 5.0.0 (20220707.1540)
 -->
<!-- Title: dependencies Pages: 1 -->
<svg width="322pt" height="174pt"
 viewBox="0.00 0.00 322.00 173.80" xmlns="http://www.w3.org/2000/svg" xmlns:xlink="http://www.w3.org/1999/xlink">
<g id="graph0" class="graph" transform="scale(1 1) rotate(0) translate(4 169.8)">
<title>dependencies</title>
<polygon fill="white" stroke="transparent" points="-4,4 -4,-169.8 318,-169.8 318,4 -4,4"/>
<text text-anchor="middle" x="157" y="-8.2" font-family="sans-serif" font-size="14.00">dependencies</text>
<g id="clust1" class="cluster">
<title>cluster_FriendsModule</title>
<polygon fill="none" stroke="black" stroke-dasharray="1,5" points="8,-32.8 8,-157.8 306,-157.8 306,-32.8 8,-32.8"/>
</g>
<g id="clust3" class="cluster">
<title>cluster_FriendsModule_imports</title>
<polygon fill="none" stroke="black" points="178,-40.8 178,-92.8 298,-92.8 298,-40.8 178,-40.8"/>
</g>
<g id="clust6" class="cluster">
<title>cluster_FriendsModule_providers</title>
<polygon fill="none" stroke="black" points="16,-40.8 16,-92.8 170,-92.8 170,-40.8 16,-40.8"/>
</g>
<!-- ProfilesModule -->
<g id="node1" class="node">
<title>ProfilesModule</title>
<polygon fill="#8dd3c7" stroke="black" points="289.6,-84.8 286.6,-88.8 265.6,-88.8 262.6,-84.8 186.4,-84.8 186.4,-48.8 289.6,-48.8 289.6,-84.8"/>
<text text-anchor="middle" x="238" y="-62.6" font-family="Times,serif" font-size="14.00">ProfilesModule</text>
</g>
<!-- FriendsModule -->
<g id="node2" class="node">
<title>FriendsModule</title>
<polygon fill="#8dd3c7" stroke="black" points="215.55,-149.8 212.55,-153.8 191.55,-153.8 188.55,-149.8 114.45,-149.8 114.45,-113.8 215.55,-113.8 215.55,-149.8"/>
<text text-anchor="middle" x="165" y="-127.6" font-family="Times,serif" font-size="14.00">FriendsModule</text>
</g>
<!-- ProfilesModule&#45;&gt;FriendsModule -->
<g id="edge1" class="edge">
<title>ProfilesModule&#45;&gt;FriendsModule</title>
<path fill="none" stroke="black" d="M201.11,-84.91C201.11,-84.91 201.11,-103.79 201.11,-103.79"/>
<polygon fill="black" stroke="black" points="197.61,-103.79 201.11,-113.79 204.61,-103.79 197.61,-103.79"/>
</g>
<!-- FriendsService -->
<g id="node3" class="node">
<title>FriendsService</title>
<ellipse fill="#fdb462" stroke="black" cx="93" cy="-66.8" rx="68.93" ry="18"/>
<text text-anchor="middle" x="93" y="-62.6" font-family="Times,serif" font-size="14.00">FriendsService</text>
</g>
<!-- FriendsService&#45;&gt;FriendsModule -->
<g id="edge2" class="edge">
<title>FriendsService&#45;&gt;FriendsModule</title>
<path fill="none" stroke="black" d="M138.09,-80.58C138.09,-80.58 138.09,-103.35 138.09,-103.35"/>
<polygon fill="black" stroke="black" points="134.59,-103.35 138.09,-113.35 141.59,-103.35 134.59,-103.35"/>
</g>
</g>
</svg>
