<?xml version="1.0" encoding="UTF-8" standalone="no"?>
<!DOCTYPE svg PUBLIC "-//W3C//DTD SVG 1.1//EN"
 "http://www.w3.org/Graphics/SVG/1.1/DTD/svg11.dtd">
<!-- Generated by graphviz version 5.0.0 (20220707.1540)
 -->
<!-- Title: dependencies Pages: 1 -->
<svg width="647pt" height="247pt"
 viewBox="0.00 0.00 647.00 246.80" xmlns="http://www.w3.org/2000/svg" xmlns:xlink="http://www.w3.org/1999/xlink">
<g id="graph0" class="graph" transform="scale(1 1) rotate(0) translate(4 242.8)">
<title>dependencies</title>
<polygon fill="white" stroke="transparent" points="-4,4 -4,-242.8 643,-242.8 643,4 -4,4"/>
<text text-anchor="middle" x="319.5" y="-8.2" font-family="sans-serif" font-size="14.00">dependencies</text>
<g id="clust1" class="cluster">
<title>cluster_ProfilesModule</title>
<polygon fill="none" stroke="black" stroke-dasharray="1,5" points="8,-32.8 8,-230.8 631,-230.8 631,-32.8 8,-32.8"/>
</g>
<g id="clust3" class="cluster">
<title>cluster_ProfilesModule_imports</title>
<polygon fill="none" stroke="black" points="533,-40.8 533,-92.8 623,-92.8 623,-40.8 533,-40.8"/>
</g>
<g id="clust4" class="cluster">
<title>cluster_ProfilesModule_exports</title>
<polygon fill="none" stroke="black" points="152,-170.8 152,-222.8 547,-222.8 547,-170.8 152,-170.8"/>
</g>
<g id="clust6" class="cluster">
<title>cluster_ProfilesModule_providers</title>
<polygon fill="none" stroke="black" points="16,-40.8 16,-92.8 525,-92.8 525,-40.8 16,-40.8"/>
</g>
<!-- S3Module -->
<g id="node1" class="node">
<title>S3Module</title>
<polygon fill="#8dd3c7" stroke="black" points="615.34,-84.8 612.34,-88.8 591.34,-88.8 588.34,-84.8 540.66,-84.8 540.66,-48.8 615.34,-48.8 615.34,-84.8"/>
<text text-anchor="middle" x="578" y="-62.6" font-family="Times,serif" font-size="14.00">S3Module</text>
</g>
<!-- ProfilesModule -->
<g id="node2" class="node">
<title>ProfilesModule</title>
<polygon fill="#8dd3c7" stroke="black" points="391.6,-149.8 388.6,-153.8 367.6,-153.8 364.6,-149.8 288.4,-149.8 288.4,-113.8 391.6,-113.8 391.6,-149.8"/>
<text text-anchor="middle" x="340" y="-127.6" font-family="Times,serif" font-size="14.00">ProfilesModule</text>
</g>
<!-- S3Module&#45;&gt;ProfilesModule -->
<g id="edge1" class="edge">
<title>S3Module&#45;&gt;ProfilesModule</title>
<path fill="none" stroke="black" d="M578,-84.82C578,-102.17 578,-125.8 578,-125.8 578,-125.8 401.64,-125.8 401.64,-125.8"/>
<polygon fill="black" stroke="black" points="401.64,-122.3 391.64,-125.8 401.64,-129.3 401.64,-122.3"/>
</g>
<!-- ProfilesRepository  -->
<g id="node3" class="node">
<title>ProfilesRepository </title>
<polygon fill="#fb8072" stroke="black" points="539.49,-214.8 414.51,-214.8 414.51,-178.8 539.49,-178.8 539.49,-214.8"/>
<text text-anchor="middle" x="477" y="-192.6" font-family="Times,serif" font-size="14.00">ProfilesRepository </text>
</g>
<!-- ProfilesModule&#45;&gt;ProfilesRepository  -->
<g id="edge2" class="edge">
<title>ProfilesModule&#45;&gt;ProfilesRepository </title>
<path fill="none" stroke="black" stroke-dasharray="5,2" d="M391.64,-137.8C426.46,-137.8 466.07,-137.8 466.07,-137.8 466.07,-137.8 466.07,-168.78 466.07,-168.78"/>
<polygon fill="black" stroke="black" points="462.57,-168.78 466.07,-178.78 469.57,-168.78 462.57,-168.78"/>
</g>
<!-- ProfilesResolver  -->
<g id="node4" class="node">
<title>ProfilesResolver </title>
<polygon fill="#fb8072" stroke="black" points="396.32,-214.8 283.68,-214.8 283.68,-178.8 396.32,-178.8 396.32,-214.8"/>
<text text-anchor="middle" x="340" y="-192.6" font-family="Times,serif" font-size="14.00">ProfilesResolver </text>
</g>
<!-- ProfilesModule&#45;&gt;ProfilesResolver  -->
<g id="edge3" class="edge">
<title>ProfilesModule&#45;&gt;ProfilesResolver </title>
<path fill="none" stroke="black" stroke-dasharray="5,2" d="M340,-149.91C340,-149.91 340,-168.79 340,-168.79"/>
<polygon fill="black" stroke="black" points="336.5,-168.79 340,-178.79 343.5,-168.79 336.5,-168.79"/>
</g>
<!-- ProfilesService  -->
<g id="node5" class="node">
<title>ProfilesService </title>
<polygon fill="#fb8072" stroke="black" points="265.53,-214.8 160.47,-214.8 160.47,-178.8 265.53,-178.8 265.53,-214.8"/>
<text text-anchor="middle" x="213" y="-192.6" font-family="Times,serif" font-size="14.00">ProfilesService </text>
</g>
<!-- ProfilesModule&#45;&gt;ProfilesService  -->
<g id="edge4" class="edge">
<title>ProfilesModule&#45;&gt;ProfilesService </title>
<path fill="none" stroke="black" stroke-dasharray="5,2" d="M288.24,-137.8C257.13,-137.8 223.53,-137.8 223.53,-137.8 223.53,-137.8 223.53,-168.78 223.53,-168.78"/>
<polygon fill="black" stroke="black" points="220.03,-168.78 223.53,-178.78 227.03,-168.78 220.03,-168.78"/>
</g>
<!-- ProfilesGateway -->
<g id="node6" class="node">
<title>ProfilesGateway</title>
<ellipse fill="#fdb462" stroke="black" cx="442" cy="-66.8" rx="75.29" ry="18"/>
<text text-anchor="middle" x="442" y="-62.6" font-family="Times,serif" font-size="14.00">ProfilesGateway</text>
</g>
<!-- ProfilesGateway&#45;&gt;ProfilesModule -->
<g id="edge5" class="edge">
<title>ProfilesGateway&#45;&gt;ProfilesModule</title>
<path fill="none" stroke="black" d="M379.08,-76.96C379.08,-76.96 379.08,-103.61 379.08,-103.61"/>
<polygon fill="black" stroke="black" points="375.58,-103.61 379.08,-113.61 382.58,-103.61 375.58,-103.61"/>
</g>
<!-- ProfilesRepository -->
<g id="node7" class="node">
<title>ProfilesRepository</title>
<ellipse fill="#fdb462" stroke="black" cx="265" cy="-66.8" rx="83.42" ry="18"/>
<text text-anchor="middle" x="265" y="-62.6" font-family="Times,serif" font-size="14.00">ProfilesRepository</text>
</g>
<!-- ProfilesRepository&#45;&gt;ProfilesModule -->
<g id="edge6" class="edge">
<title>ProfilesRepository&#45;&gt;ProfilesModule</title>
<path fill="none" stroke="black" d="M318.45,-80.9C318.45,-80.9 318.45,-103.52 318.45,-103.52"/>
<polygon fill="black" stroke="black" points="314.95,-103.52 318.45,-113.52 321.95,-103.52 314.95,-103.52"/>
</g>
<!-- ProfilesService -->
<g id="node8" class="node">
<title>ProfilesService</title>
<ellipse fill="#fdb462" stroke="black" cx="94" cy="-66.8" rx="70.07" ry="18"/>
<text text-anchor="middle" x="94" y="-62.6" font-family="Times,serif" font-size="14.00">ProfilesService</text>
</g>
<!-- ProfilesService&#45;&gt;ProfilesModule -->
<g id="edge7" class="edge">
<title>ProfilesService&#45;&gt;ProfilesModule</title>
<path fill="none" stroke="black" d="M92.22,-84.82C92.22,-102.17 92.22,-125.8 92.22,-125.8 92.22,-125.8 278.36,-125.8 278.36,-125.8"/>
<polygon fill="black" stroke="black" points="278.36,-129.3 288.36,-125.8 278.36,-122.3 278.36,-129.3"/>
</g>
</g>
</svg>
